<svg version="1.1" id="Layer_1" xmlns="http://www.w3.org/2000/svg" xmlns:xlink="http://www.w3.org/1999/xlink" x="0px" y="0px"
	 width="100%" viewBox="0 0 471 464" enable-background="new 0 0 471 464" xml:space="preserve">
<path fill="none" opacity="1.000000" stroke="#000000" stroke-linecap="round" stroke-linejoin="round" stroke-width="4.000000"
	d="
M304.500000,16.500000 
	C310.764771,18.136316 317.158600,17.342218 323.500305,17.487211 
	C328.254425,17.595907 332.876251,18.538828 337.499054,19.504530 
	C340.476624,20.126547 342.159515,21.605360 342.578766,24.990246 
	C344.351013,39.298656 346.737457,53.602043 346.755249,68.000305 
	C346.765259,76.113373 345.943451,84.427216 345.912842,92.501564 
	C345.870972,103.532234 345.497589,115.047142 350.915680,125.543518 
	C353.317627,130.196686 357.648102,128.973663 361.019836,129.285904 
	C367.284027,129.866013 373.666016,129.134811 380.000153,129.007156 
	C390.532257,128.794891 401.090454,129.150833 411.477905,130.652878 
	C420.853577,132.008621 430.177856,130.508392 439.507263,131.426025 
	C445.073395,131.973511 449.614838,134.492905 453.400360,138.104446 
	C456.346497,140.915207 454.574951,148.157089 450.472260,152.473648 
	C449.664764,153.323273 448.224335,153.625977 447.542664,154.532089 
	C440.757019,163.552063 430.247437,165.395874 420.468811,168.398453 
	C413.643463,170.494217 407.622192,173.856064 402.032440,178.043320 
	C394.075989,184.003479 394.787598,192.254440 397.080292,200.477615 
	C398.655945,206.129120 400.319397,211.456573 398.685608,217.549774 
	C397.742920,221.065536 396.170166,223.938690 393.930145,226.437393 
	C391.443604,229.211029 391.747345,231.905716 394.089417,233.894714 
	C396.859985,236.247604 399.901123,238.667145 404.000275,238.506638 
	C412.111420,238.189056 418.996826,242.527390 426.469940,244.607956 
	C432.768158,246.361420 438.072327,250.067825 442.006378,255.495377 
	C448.835632,264.917175 448.565033,273.125427 440.037689,280.046448 
	C437.260406,282.300629 434.649445,284.774811 433.413422,288.471039 
	C432.480042,291.262146 429.919220,292.401215 427.005798,291.961578 
	C424.241272,291.544434 422.168732,290.732880 421.859314,287.011688 
	C421.355682,280.955078 417.402985,276.721771 411.932037,274.682343 
	C409.383026,273.732208 407.277832,272.043304 404.552795,271.305084 
	C401.457703,270.466675 400.057892,267.711121 400.364807,263.988861 
	C400.612183,260.989136 402.037445,256.500153 398.410736,255.261322 
	C394.757355,254.013382 392.232147,257.670837 389.978485,260.482758 
	C386.788147,264.463348 385.225861,268.782562 384.144073,273.925140 
	C382.904907,279.815857 381.799164,286.165375 378.445984,291.465820 
	C375.364532,296.336670 373.663910,296.469330 370.046875,291.962372 
	C361.991913,281.925385 353.816467,271.935059 349.453705,259.516266 
	C348.659943,257.256683 348.092865,254.530075 344.510498,254.084152 
	C342.934174,256.919434 342.633789,259.644043 343.191650,263.544098 
	C344.610077,273.461029 345.420776,283.663696 341.975159,293.491302 
	C340.254974,298.397583 337.950104,299.925110 332.504517,299.448242 
	C326.143005,298.891144 319.816895,297.997986 313.988434,295.022644 
	C311.005066,293.499664 308.036377,294.451447 306.665985,297.086334 
	C305.525513,299.279114 306.826447,302.537842 309.057068,303.341644 
	C314.523132,305.311188 318.048035,309.896698 322.953979,312.583984 
	C328.553894,315.651398 333.849579,317.796906 339.449005,312.708160 
	C340.081482,313.234955 340.886383,313.568481 340.948608,314.007294 
	C342.048157,321.760010 341.067291,329.243896 336.935028,335.960022 
	C334.180878,340.436249 328.916565,340.506683 324.469299,341.335144 
	C321.473602,341.893219 318.916992,342.656647 316.471680,344.461639 
	C311.438660,348.176666 308.373840,347.044800 306.503204,340.999023 
	C304.912262,335.857178 302.216644,331.130859 298.387695,327.622559 
	C292.141144,321.899109 288.680908,314.471252 284.679016,307.398712 
	C283.630981,305.546570 282.738678,304.832672 281.017029,304.435059 
	C278.446930,306.483093 279.226440,309.197937 280.591553,310.927765 
	C287.932281,320.230042 291.403656,331.362885 296.148987,341.933105 
	C298.638550,347.478577 301.835938,353.240662 306.222534,357.256958 
	C311.069885,361.695099 309.915192,366.537811 308.209412,370.370667 
	C305.539490,376.369873 303.643463,382.689636 300.634399,388.568787 
	C299.041870,391.680237 299.067932,395.576294 297.958801,398.986603 
	C293.484619,412.743713 288.200958,426.197083 280.382599,438.424927 
	C278.157776,441.904541 276.075684,445.455627 274.047638,449.027069 
	C269.565399,456.920502 260.266174,459.764526 252.564560,454.897827 
	C249.764053,453.128235 246.968918,451.385162 243.982071,450.039795 
	C233.962280,445.526459 229.585754,435.977325 224.720428,427.375336 
	C219.313644,417.815948 215.507690,407.347076 210.625778,397.438019 
	C208.844666,393.822876 208.564072,389.482666 207.486816,385.503571 
	C205.168686,376.941132 199.254074,372.007263 191.610123,367.799927 
	C182.352203,362.704254 173.093079,357.396423 165.802094,349.175507 
	C163.065582,346.089966 162.078079,342.658691 161.761398,339.473999 
	C161.200363,333.832031 160.664383,328.029938 163.853210,322.416595 
	C167.393784,316.184143 169.928421,309.475494 175.446167,304.440979 
	C180.788666,299.566437 187.028198,297.917389 193.895020,296.102753 
	C202.552383,293.814911 211.772339,294.981995 220.020126,291.042145 
	C222.012573,290.090393 224.209137,289.580231 226.498611,289.470947 
	C232.446365,289.186951 236.913971,285.863220 239.310242,280.908234 
	C241.313461,276.765991 243.445343,272.208557 246.263184,269.250732 
	C254.978073,260.102936 263.610046,249.991043 277.020905,247.618073 
	C287.101135,245.834442 297.130402,243.678635 307.486908,243.210205 
	C311.732758,243.018173 315.826202,242.969254 320.001801,243.485397 
	C325.230774,244.131714 330.213135,242.679733 334.948486,240.865524 
	C337.477417,239.896622 340.510529,238.471680 340.040802,234.495178 
	C339.559448,230.420090 336.361115,229.933655 333.488037,229.604523 
	C330.349457,229.244980 327.158600,229.784103 323.960480,230.183212 
	C315.242096,231.271240 306.333221,230.827698 297.500122,231.006271 
	C296.213654,231.032288 295.330719,230.338562 294.491241,229.535309 
	C295.673706,224.725693 293.804932,220.168808 293.477478,215.501587 
	C293.098907,210.105530 294.055511,204.767822 291.295990,199.349258 
	C289.611115,196.040909 295.153046,190.015106 300.524261,189.150681 
	C306.785736,188.142944 312.960144,185.632477 319.497650,187.011124 
	C322.344971,187.611557 325.201935,188.212631 327.991821,189.028015 
	C332.277405,190.280518 336.736572,188.757721 341.181335,190.052780 
	C345.017456,187.883621 344.451782,183.773941 344.355377,180.504257 
	C344.073883,170.956406 346.141388,161.533752 345.497345,152.000183 
	C345.301514,149.101425 347.013947,146.451721 346.517548,143.497055 
	C345.973328,140.257523 345.299713,137.929398 341.018127,137.362976 
	C323.195221,135.005173 324.780090,136.074371 317.673370,150.087921 
	C314.321289,156.697800 311.026154,163.600067 308.795349,170.594208 
	C305.946594,179.525711 299.131317,181.072235 291.969482,182.325607 
	C288.121399,182.999023 284.074951,184.632294 279.922699,183.071823 
	C278.398712,184.532990 278.235596,186.150452 278.340302,188.507095 
	C278.956360,202.372177 277.890747,216.199844 276.558990,230.005692 
	C276.435303,231.287811 275.667572,231.802094 274.981537,232.481354 
	C273.719391,233.731064 263.580078,234.313812 262.566254,232.950714 
	C260.405823,230.045868 258.445282,231.024261 255.970718,232.449158 
	C251.469284,235.041153 248.757095,233.284363 248.476074,228.001266 
	C248.281067,224.334930 248.440125,220.661972 248.233322,216.986862 
	C248.076370,214.198013 251.696365,212.691803 253.487991,210.418808 
	C257.543976,212.367004 261.831238,211.195206 266.000641,211.490967 
	C268.093658,211.639420 268.696381,209.897659 268.913818,208.486725 
	C269.209869,206.566101 267.712372,206.277420 266.021851,205.901718 
	C263.655426,205.375854 261.285889,205.293427 259.007721,205.564911 
	C246.838150,207.015198 240.947037,199.489044 236.546539,189.978470 
	C234.340317,185.210236 231.575958,181.736176 226.037979,180.348419 
	C221.183624,179.131989 216.177719,182.407028 216.137024,188.000992 
	C216.105652,192.312515 217.726364,196.654846 220.588013,199.922928 
	C224.315308,204.179626 226.908310,209.183273 230.435684,213.551926 
	C231.713562,215.134567 234.753998,216.696045 231.996643,219.496689 
	C230.687241,220.826645 224.822113,220.345963 223.569077,218.454239 
	C221.816010,215.807602 219.629196,214.599594 216.502167,214.453506 
	C213.061630,214.292786 211.763931,215.566223 212.482040,219.003754 
	C213.959900,226.078323 211.211624,230.948059 204.486038,233.462662 
	C202.409134,234.239227 200.242676,235.701248 197.979279,233.521515 
	C195.572357,231.203613 197.711777,229.046219 198.632217,227.583191 
	C201.960663,222.292603 203.206100,216.442032 204.607956,210.525574 
	C205.190872,208.065506 204.728363,206.374832 202.979279,205.026886 
	C195.109528,198.962067 191.029327,190.127594 186.040421,181.975266 
	C184.123352,178.842590 182.204498,175.922241 178.007233,176.548462 
	C175.023285,176.993637 171.908951,181.707397 171.480148,185.497757 
	C170.183899,196.955994 172.601151,208.179337 173.459869,219.503036 
	C173.679230,222.395844 173.988083,225.432434 171.997940,227.998398 
	C170.860718,229.464645 169.271713,230.321411 167.509048,229.956284 
	C159.115433,228.217606 150.857635,231.501205 142.499451,230.504593 
	C140.341049,230.247223 138.188553,230.665009 135.983322,230.060883 
	C130.684021,228.609192 130.072403,224.056931 129.617462,219.986877 
	C128.578857,210.695114 127.993431,201.341339 127.561203,191.997162 
	C127.275414,185.818741 127.849503,185.345901 133.997757,185.563553 
	C137.177216,185.676117 140.302612,185.183472 143.506622,185.279800 
	C149.525604,185.460739 152.381454,179.827271 149.962143,174.517242 
	C146.669205,167.289734 142.568802,160.513962 138.045898,153.968277 
	C135.106049,149.713638 132.982605,144.880280 129.448608,141.047379 
	C127.997070,139.473083 129.058563,137.499100 128.158600,136.356522 
	C130.450638,132.732559 134.369812,132.800919 137.479233,133.173401 
	C148.063507,134.441269 158.475891,132.137482 169.001892,132.204636 
	C174.335861,132.238678 177.900391,127.322380 179.471985,121.991745 
	C181.439896,115.316895 181.478806,108.370171 181.994034,101.499550 
	C182.828018,90.378876 187.200333,82.297768 201.466721,79.339508 
	C208.892715,77.799660 216.136185,78.399529 223.500336,78.458946 
	C239.832596,78.590721 256.199829,77.849678 272.490814,78.680412 
	C289.238922,79.534462 305.839294,78.008652 322.497009,77.415787 
	C328.397522,77.205780 333.435211,74.267899 337.459686,69.962326 
	C339.492706,67.787323 338.464233,64.787498 335.494843,63.511986 
	C332.742096,62.329529 329.887177,62.140621 327.001099,63.003723 
	C320.632141,64.908401 314.095795,65.768280 307.516724,66.627945 
	C303.149445,67.198608 299.685822,65.552254 296.570801,63.397655 
	C291.131104,59.635151 291.948364,53.387165 297.977448,47.476997 
	C302.268188,43.270885 304.624451,38.172516 304.526917,31.999575 
	C304.412079,24.729519 300.164917,21.604288 293.546417,24.602438 
	C290.229431,26.105022 287.547333,28.644371 285.407959,31.940248 
	C280.078552,40.150558 276.782318,49.308739 272.425018,57.962238 
	C268.294556,66.165230 261.351624,70.334114 252.001404,70.558502 
	C247.530029,70.665802 244.331757,67.914398 241.128677,65.804642 
	C238.207565,63.880608 235.146698,61.805599 232.590729,59.403458 
	C227.431778,54.555023 222.585602,55.881180 216.943802,58.372742 
	C211.328201,60.852741 206.377457,64.562065 200.516098,66.547523 
	C194.915558,68.444633 189.856140,67.543037 185.001450,64.497681 
	C180.578049,61.722874 181.335464,57.737762 183.115738,54.055962 
	C184.169495,51.876648 184.424469,50.246796 183.580536,47.970150 
	C182.317230,44.562225 184.855194,41.998665 186.560120,39.541721 
	C191.281891,32.737198 199.063736,29.358980 204.832138,23.825026 
	C209.709854,19.145540 214.796432,18.473162 220.997086,18.351528 
	C233.840073,18.099592 246.679276,18.485380 259.495026,18.240318 
	C266.604095,18.104378 273.797455,16.711765 281.000763,16.529860 
	C286.830383,16.382645 292.666656,16.500000 298.500000,16.500000 
"/>
<path fill="none" opacity="1.000000" stroke="#000000" stroke-linecap="round" stroke-linejoin="round" stroke-width="4.000000"
	d="
M14.000000,41.500000 
	C13.271487,44.780922 15.003980,46.622952 17.444695,48.569351 
	C23.216497,53.172192 27.238018,58.793037 28.678602,66.466469 
	C29.817705,72.534035 27.939215,77.681496 25.336836,82.410202 
	C21.714573,88.992126 20.645912,95.758606 20.994576,103.000259 
	C21.034603,103.831673 21.131926,104.691650 20.979574,105.496132 
	C19.470222,113.466270 22.110487,121.169205 22.413296,129.003357 
	C22.902412,141.657562 22.954212,154.334000 22.883844,166.999359 
	C22.871780,169.170593 21.421350,171.372177 20.485010,173.493378 
	C16.040556,183.561935 14.289544,194.219498 15.683567,204.976212 
	C16.910446,214.443176 23.601225,220.714142 31.522469,225.462524 
	C35.224442,227.681656 39.285885,229.303436 42.975075,231.541092 
	C50.549946,236.135590 52.571285,244.637360 47.358578,253.416031 
	C43.773712,259.453247 39.605331,265.268036 36.715698,271.598450 
	C34.170452,277.174377 28.972269,280.455841 26.757660,286.409851 
	C22.842100,296.936920 22.122431,307.676727 22.671362,318.491302 
	C23.140137,327.726654 24.028606,336.796661 22.092272,346.019379 
	C19.623631,357.777496 24.200773,368.455475 28.579639,378.966827 
	C30.323849,383.153778 33.539448,386.544830 36.492897,390.006073 
	C38.082035,391.868439 40.506741,391.688599 41.901203,390.838013 
	C43.800041,389.679840 45.275982,390.093170 47.000000,390.500000 
"/>
<path fill="none" opacity="1.000000" stroke="#000000" stroke-linecap="round" stroke-linejoin="round" stroke-width="3.000000"
	d="
M103.500000,126.000000 
	C105.908821,128.663483 109.804756,127.656334 112.596893,129.878235 
	C115.115906,131.882797 116.392090,134.115662 115.941971,136.990921 
	C113.525337,152.427704 109.193207,167.161957 98.966446,179.472122 
	C96.793182,182.088120 96.849350,185.017059 97.067886,187.995026 
	C97.155716,189.191940 98.438423,190.346893 98.402847,191.496994 
	C98.341042,193.494812 99.705765,196.145996 97.439186,197.389114 
	C95.460541,198.474319 94.317406,196.173065 92.992676,195.008331 
	C92.368729,194.459747 91.478180,194.130432 91.028343,193.480392 
	C84.524391,184.081741 75.321373,184.006149 65.500061,186.000305 
	C60.882935,186.937775 56.335060,187.724304 51.930897,189.857315 
	C45.351509,193.043793 40.086590,200.348907 40.500000,207.500000 
	C41.004997,216.235413 50.468983,220.327957 58.698536,215.670609 
	C63.423790,217.233337 62.137207,221.470978 62.281559,224.510376 
	C62.447479,228.003891 64.141502,230.380554 66.556213,231.361649 
	C78.467796,236.201218 89.119804,243.141998 99.416824,250.614609 
	C102.743248,253.028641 106.857307,252.704849 110.087257,255.395248 
	C116.876793,261.050507 118.297455,265.304413 113.426735,272.450073 
	C103.991943,286.291412 96.133972,300.891541 91.627686,317.035645 
	C89.660904,324.081757 83.755119,328.057648 80.470955,333.983917 
	C77.335007,339.642700 72.928864,344.608124 68.717819,349.243652 
	C62.123039,356.503265 60.913250,366.454529 54.500000,373.500000 
	C55.244423,379.303711 48.918049,382.750458 49.500000,388.500000 
"/>
<path fill="none" opacity="1.000000" stroke="#000000" stroke-linecap="round" stroke-linejoin="round" stroke-width="3.000000"
	d="
M100.000000,124.000000 
	C97.196068,126.097954 94.161301,125.289116 90.994080,125.098129 
	C80.375420,124.457794 76.024734,118.520195 73.671097,108.577866 
	C72.010147,101.561630 71.206093,94.526176 69.962868,87.506577 
	C68.452560,78.978882 66.991669,70.418175 64.879913,62.030231 
	C63.582348,56.876278 62.370037,51.714912 61.558266,46.490948 
	C60.101139,37.113964 56.543880,29.069786 48.500267,23.499613 
	C46.098469,21.836374 43.642330,21.304991 40.996002,22.993738 
	C37.339104,25.327375 33.244701,26.248289 29.005342,25.929045 
	C26.053577,25.706764 26.366955,27.976892 25.470398,29.482370 
	C23.679878,32.488960 24.804712,35.854263 24.096478,39.021572 
	C23.021109,43.830742 21.329634,44.807636 17.506992,41.990513 
	C16.460966,41.219635 15.500001,40.333332 14.500001,39.500000 
"/>
<path fill="none" opacity="1.000000" stroke="#000000" stroke-linecap="round" stroke-linejoin="round" stroke-width="4.000000"
	d="
M125.500000,32.500000 
	C122.743866,35.194855 123.129738,37.641380 125.988335,40.014057 
	C127.987724,41.673588 128.826126,43.283112 127.094582,46.058998 
	C123.554054,51.734940 127.119247,60.699886 134.036270,62.347771 
	C142.786942,64.432495 151.747803,66.125336 160.540634,61.578583 
	C164.339294,59.614307 167.796265,57.286339 169.371399,53.447239 
	C171.065109,49.319180 171.694061,44.625824 167.951797,41.050446 
	C164.268631,37.531536 160.652756,33.905788 154.449265,36.372387 
	C149.688339,38.265400 141.231277,34.608063 138.039917,29.972515 
	C136.329880,27.488626 134.056778,25.960581 131.552689,24.414658 
	C128.636536,22.614344 126.702553,24.251225 124.653793,25.216867 
	C123.185440,27.920189 127.415527,29.487354 125.500000,32.000000 
"/>
<path fill="none" opacity="1.000000" stroke="#000000" stroke-linecap="round" stroke-linejoin="round" stroke-width="4.000000"
	d="
M335.000000,405.500000 
	C339.048004,408.634491 338.116272,413.341431 337.305664,416.956421 
	C334.005585,431.672943 328.567963,445.475586 317.012360,456.013550 
	C312.904053,459.760071 308.502594,459.326569 303.460938,458.170258 
	C299.276001,457.210449 299.549866,454.472046 300.148834,452.036621 
	C300.843353,449.212830 302.310394,446.398621 304.073517,444.055328 
	C307.848145,439.038513 306.868652,433.397125 306.262665,428.026794 
	C306.035126,426.010376 305.611603,423.529755 304.431030,421.449097 
	C307.573639,416.689178 312.147736,415.485168 317.501373,415.985260 
	C322.252258,416.429077 325.856659,415.433929 327.718719,410.076019 
	C328.519958,407.770599 330.380829,404.222046 334.500000,405.500000 
"/>
<path fill="none" opacity="1.000000" stroke="#000000" stroke-linecap="round" stroke-linejoin="round" stroke-width="4.000000"
	d="
M351.000000,307.000000 
	C358.607910,308.682251 363.711517,313.892456 368.485535,319.512299 
	C371.519073,323.083252 374.166077,326.841736 375.574036,331.477509 
	C377.048645,336.332611 376.714172,339.490173 373.494598,341.993042 
	C370.037109,344.680817 366.946625,341.859894 364.077179,340.792511 
	C362.014008,340.025055 360.388763,337.514954 359.050476,335.467010 
	C354.458954,328.440826 350.204376,321.261169 347.888000,313.031525 
	C346.986938,309.830322 348.110718,308.351685 350.500000,307.000000 
"/>
<path fill="none" opacity="1.000000" stroke="#000000" stroke-linecap="round" stroke-linejoin="round" stroke-width="4.000000"
	d="
M102.500000,124.000000 
	C106.407173,122.143929 106.280945,118.220963 106.362404,114.996521 
	C106.526848,108.487984 108.282791,103.284637 113.941071,99.413857 
	C118.145424,96.537704 118.149391,95.061203 115.461693,90.522682 
	C114.651253,89.154160 115.104141,87.830322 115.025558,86.498489 
	C114.293556,74.092628 106.993362,72.688713 97.997887,74.991760 
	C94.992828,75.761116 92.374641,77.474464 89.584312,78.693062 
	C86.898567,79.865982 85.261459,82.520012 87.445457,86.033897 
	C90.665512,91.214752 90.965881,97.108871 90.464180,102.996948 
	C89.934692,109.211021 92.753700,114.200813 96.063255,118.955978 
	C97.521111,121.050636 99.666664,122.666672 101.500000,124.500000 
"/>
<path fill="none" opacity="1.000000" stroke="#000000" stroke-linecap="round" stroke-linejoin="round" stroke-width="4.000000"
	d="
M163.500000,86.500000 
	C161.070831,90.184959 158.513229,93.783020 156.979462,97.992516 
	C155.517990,102.003601 156.390274,104.482712 160.530594,105.354706 
	C162.461533,105.761375 162.764313,107.075172 162.883713,108.014778 
	C163.163773,110.218620 163.766571,112.133743 164.957581,114.026688 
	C166.886627,117.092628 164.095428,120.749329 160.495987,120.591881 
	C151.491547,120.198036 142.423264,119.947296 133.526642,121.640053 
	C131.206406,122.081512 128.921310,122.057289 128.198212,120.412842 
	C127.377426,118.546227 128.778488,116.499916 130.983459,115.464775 
	C132.266251,114.862564 133.383865,113.908516 134.489502,113.170395 
	C134.123413,112.182426 133.995956,111.198288 133.471436,110.522163 
	C128.361343,103.934952 128.520615,99.801262 135.620102,95.708336 
	C139.553543,93.440674 140.423126,90.825493 140.523361,87.000610 
	C140.680389,81.008965 144.931702,78.192528 149.475525,75.459305 
	C155.376862,71.909485 159.169830,72.317177 164.004333,77.502716 
	C164.150986,79.448540 161.930435,79.914856 161.443008,81.039490 
	C161.687851,83.212807 163.687149,84.120529 163.500000,86.000000 
"/>
<path fill="none" opacity="1.000000" stroke="#000000" stroke-linecap="round" stroke-linejoin="round" stroke-width="4.000000"
	d="
M395.000000,385.000000 
	C396.468903,383.169769 396.569092,381.268646 394.474731,380.043182 
	C389.106659,376.902008 385.907715,371.590576 381.552948,367.444397 
	C379.445587,365.437927 377.278442,363.674713 374.489807,363.045166 
	C369.582794,361.937378 366.125977,358.402130 362.013153,355.977692 
	C358.434143,353.867828 354.245026,354.519897 350.420532,353.236847 
	C348.111603,352.462189 345.536224,354.529480 344.445496,357.479858 
	C343.370941,360.386383 344.274689,361.768005 346.950531,363.099396 
	C349.351990,364.294220 351.219360,366.514343 353.522461,367.964325 
	C359.266052,371.580444 363.391083,376.659882 366.373749,382.563782 
	C367.415802,384.626434 369.092438,385.565979 370.197083,387.281982 
	C374.835541,386.488403 376.712219,380.241364 381.995178,382.014343 
	C386.192963,383.423126 390.812073,383.670135 394.500000,386.500000 
"/>
<path fill="none" opacity="1.000000" stroke="#000000" stroke-linecap="round" stroke-linejoin="round" stroke-width="4.000000"
	d="
M87.000000,420.000000 
	C82.953804,423.215363 78.691872,426.289825 78.009842,432.001190 
	C77.393311,437.164093 82.220734,442.967804 87.500000,443.500000 
	C95.043808,444.260468 100.813026,440.105743 101.570595,434.008759 
	C102.685585,425.035217 95.024063,420.023865 87.500000,420.000000 
"/>
<path fill="none" opacity="1.000000" stroke="#000000" stroke-linecap="round" stroke-linejoin="round" stroke-width="4.000000"
	d="
M182.500000,435.500000 
	C185.612564,441.133789 186.116211,448.202454 192.452103,452.078308 
	C196.992584,454.855804 197.729019,455.036316 199.388046,449.963379 
	C199.948715,448.249023 201.077286,447.277466 201.883972,445.996460 
	C206.395401,446.123932 208.983719,449.730682 212.418854,451.645569 
	C215.791214,453.525452 218.456375,453.783691 221.511612,451.515625 
	C224.933456,448.975342 225.785812,445.957764 224.032303,441.985748 
	C221.055832,435.243500 218.250458,428.120117 210.944016,425.137115 
	C204.442703,422.482910 198.134415,423.377350 194.978165,429.989563 
	C194.186157,431.648743 194.002762,433.126984 194.409119,435.019501 
	C195.305069,439.192200 193.603027,440.773285 189.544281,439.371765 
	C187.818542,438.775787 186.222672,438.553284 184.500000,438.500000 
"/>
<path fill="none" opacity="1.000000" stroke="#000000" stroke-linecap="round" stroke-linejoin="round" stroke-width="4.000000"
	d="
M452.000000,187.500000 
	C452.462402,184.456131 451.503448,181.804688 448.473358,181.117416 
	C445.335388,180.405640 442.484009,181.500275 440.457581,184.471069 
	C437.841064,188.306915 436.075409,192.665680 435.724396,197.018097 
	C435.332550,201.877899 432.312988,203.581985 428.991577,205.485306 
	C422.587158,209.155304 416.652496,213.196518 412.933594,219.963501 
	C409.996948,225.307068 409.617096,227.481094 412.500000,230.000000 
	C415.512634,232.632248 421.255859,232.916672 424.411224,229.906937 
	C426.788574,227.639313 429.499756,225.755554 431.585297,223.066132 
	C435.533691,217.974426 440.948944,214.163849 447.066895,212.800156 
	C450.667725,211.997528 451.122742,209.738632 450.825226,208.030441 
	C449.643555,201.245453 451.337616,194.666779 451.500000,188.000000 
"/>
<path fill="none" opacity="1.000000" stroke="#000000" stroke-linecap="round" stroke-linejoin="round" stroke-width="4.000000"
	d="
M387.000000,409.500000 
	C384.344330,411.306610 385.121246,414.960114 382.592560,417.108917 
	C379.376801,419.841553 376.575470,417.954193 374.066345,416.849335 
	C371.041840,415.517456 371.585999,412.868134 373.483765,410.487061 
	C374.806061,408.828064 373.680573,407.692078 372.524353,406.476807 
	C370.927185,404.798035 369.321014,405.305206 368.031799,406.533356 
	C363.134247,411.198853 358.019012,415.585541 352.509094,419.512787 
	C351.941223,419.917542 351.579315,420.638763 350.987000,420.977264 
	C347.351746,423.054962 343.941772,425.710663 343.632202,430.009521 
	C343.177429,436.324615 346.231354,441.809052 349.549042,446.968475 
	C350.818207,448.942261 352.976746,448.836670 354.996490,447.991577 
	C358.509155,446.521851 361.973755,444.934784 365.505524,443.513733 
	C372.561096,440.674988 379.337097,442.441956 385.993622,445.016510 
	C393.842407,448.052155 398.484528,445.616791 400.545288,437.511505 
	C401.474823,433.855408 401.492584,430.198608 401.510345,426.500061 
	C401.520538,424.382751 400.828186,422.724792 399.011597,421.483032 
	C394.819489,418.617371 391.995392,414.473877 389.000000,410.500000 
"/>
<path fill="none" opacity="1.000000" stroke="#000000" stroke-linecap="round" stroke-linejoin="round" stroke-width="3.000000"
	d="
M434.000000,76.000000 
	C432.114471,78.676727 428.687592,76.729416 426.958252,78.486290 
	C425.795074,78.538254 425.767792,78.005135 425.452026,77.532028 
	C420.873840,70.672722 420.341614,70.672676 415.518127,77.512787 
	C414.582123,78.840126 413.820190,80.099899 412.009949,80.540863 
	C405.523071,82.121025 405.395020,82.327888 403.445251,89.192780 
	C405.285767,92.055336 407.359467,92.405846 410.550201,90.588120 
	C415.214844,87.930740 415.681763,88.335831 418.521790,92.986687 
	C420.047485,95.485130 420.781799,98.240654 421.805634,100.881493 
	C422.715302,103.227608 421.827576,104.697319 420.902863,105.365578 
	C418.642914,106.998734 418.314148,109.251022 418.056000,111.506409 
	C417.648438,115.067398 417.309143,118.066315 413.073364,119.691254 
	C410.192505,120.796417 410.874756,124.423431 414.020294,125.437042 
	C416.565491,126.257202 419.233765,127.426605 422.383728,125.806572 
	C422.265961,123.494553 423.274994,121.332039 425.230774,119.251556 
	C428.233032,121.568169 432.055267,120.543106 435.500000,121.500000 
"/>
<path fill="none" opacity="1.000000" stroke="#000000" stroke-linecap="round" stroke-linejoin="round" stroke-width="4.000000"
	d="
M48.500000,419.000000 
	C45.856915,418.091217 43.094830,418.066193 40.405678,416.683441 
	C36.413109,414.630432 30.083033,417.646149 28.601837,422.034363 
	C27.135979,426.377136 26.500002,431.000000 25.500002,435.500000 
"/>
<path fill="none" opacity="1.000000" stroke="#000000" stroke-linecap="round" stroke-linejoin="round" stroke-width="3.000000"
	d="
M94.500000,379.000000 
	C94.666664,380.166656 94.677612,381.383209 95.031960,382.489777 
	C95.803291,384.898407 97.801277,385.237366 99.440651,383.925812 
	C102.310532,381.629822 104.597870,378.878632 105.638039,375.037384 
	C106.268852,372.707886 105.271149,371.700317 103.985649,370.515564 
	C102.378929,369.034790 101.641869,370.887146 100.469376,371.434387 
	C98.275352,372.458282 97.523918,374.896942 95.310242,376.063263 
	C95.000000,376.166656 95.119316,375.859253 94.953712,375.522766 
	C93.856781,373.293915 95.832794,369.868835 92.955948,368.599884 
	C89.338631,367.004303 87.187607,370.761505 84.626564,372.221954 
	C82.406960,373.487732 83.147797,376.533936 84.431496,379.035156 
	C85.884491,381.866241 88.193436,381.515015 89.912468,380.368744 
	C91.643120,379.214661 94.423592,379.196167 95.000000,376.500000 
"/>
<path fill="none" opacity="1.000000" stroke="#000000" stroke-linecap="round" stroke-linejoin="round" stroke-width="4.000000"
	d="
M48.500000,426.000000 
	C50.475842,429.548492 49.895943,433.801056 47.000000,437.000000 
	C44.083340,440.221832 37.458252,442.539001 34.631538,440.331573 
	C31.873789,438.177948 28.791300,438.619110 26.000000,437.500000 
"/>
<path fill="none" opacity="1.000000" stroke="#000000" stroke-linecap="round" stroke-linejoin="round" stroke-width="5.000000"
	d="
M392.500000,344.500000 
	C392.452667,342.393005 394.915375,341.541016 395.076324,339.572906 
	C389.231354,333.989716 385.070343,334.138306 380.916138,340.120758 
	C384.050568,343.738647 388.658386,342.360504 392.500000,343.500000 
"/>
<path fill="none" opacity="1.000000" stroke="#000000" stroke-linecap="round" stroke-linejoin="round" stroke-width="3.000000"
	d="
M437.500000,121.000000 
	C441.277863,120.524544 443.752167,121.814049 445.621033,125.437569 
	C447.553619,129.184647 450.972107,129.490616 453.516968,127.017456 
	C454.998169,125.577995 455.024597,123.748238 453.927826,122.567024 
	C451.104584,119.526314 451.977142,116.593864 453.473907,113.468628 
	C452.518951,112.317833 451.537811,111.135498 450.514526,109.902351 
	C451.120636,105.883423 455.109863,104.199707 457.101776,101.083893 
	C456.215576,95.548691 451.522552,92.816605 448.394196,89.088791 
	C445.249481,85.341492 441.496033,82.106133 439.518066,77.492256 
	C438.730988,75.656288 437.398804,74.928574 435.500000,75.000000 
"/>
<path fill="none" opacity="1.000000" stroke="#000000" stroke-linecap="round" stroke-linejoin="round" stroke-width="4.000000"
	d="
M385.500000,101.500000 
	C384.554840,99.111839 383.976227,96.348396 380.500122,96.502739 
	C377.894531,96.618408 375.308777,96.791214 374.377258,99.872925 
	C380.332123,106.038261 381.136780,106.184563 385.500000,102.000000 
"/>
<path fill="none" opacity="1.000000" stroke="#000000" stroke-linecap="round" stroke-linejoin="round" stroke-width="3.000000"
	d="
M387.500000,279.500000 
	C386.490601,283.849915 388.173553,288.385834 391.531372,289.395630 
	C392.666504,289.737030 394.334198,290.509674 395.457489,289.454742 
	C396.853699,288.143555 396.036194,285.947113 395.366577,285.106262 
	C393.540100,282.812653 391.739258,280.180328 388.500000,279.500000 
"/>
<path fill="none" opacity="1.000000" stroke="#000000" stroke-linecap="round" stroke-linejoin="round" stroke-width="4.000000"
	d="
M435.000000,432.500000 
	C429.754913,430.679810 426.221802,432.531952 422.862549,436.894135 
	C419.741180,440.947388 414.849457,443.285431 410.465607,445.943298 
	C406.159729,448.553925 405.187469,451.872894 411.506012,455.489471 
	C412.797760,456.228851 414.179047,456.809784 415.497833,457.504089 
	C421.017242,460.410095 422.833984,459.760132 425.507599,454.003510 
	C427.501251,449.710876 430.096710,445.566559 433.626495,442.653259 
	C437.903931,439.122925 437.410370,435.915771 435.000000,432.000000 
"/>
<path fill="none" opacity="1.000000" stroke="#000000" stroke-linecap="round" stroke-linejoin="round" stroke-width="4.000000"
	d="
M47.500000,395.000000 
	C50.106514,398.115173 54.203259,397.941589 57.460075,399.579407 
	C59.177498,400.443085 59.640034,399.226837 59.927448,398.472351 
	C60.676262,396.506653 57.127968,388.506714 55.499992,388.000031 
	C51.979221,386.904266 47.802940,389.920441 46.500000,394.500000 
"/>
<path fill="none" opacity="1.000000" stroke="#000000" stroke-linecap="round" stroke-linejoin="round" stroke-width="4.000000"
	d="
M160.500000,308.500000 
	C159.364792,306.614227 158.151993,304.872314 155.499420,305.497528 
	C151.736496,306.384430 151.351944,309.428619 150.913879,312.724152 
	C155.268326,314.594757 158.140656,313.099792 160.000000,309.000000 
"/>
<path fill="none" opacity="1.000000" stroke="#000000" stroke-linecap="round" stroke-linejoin="round" stroke-width="3.000000"
	d="
M50.250000,416.500000 
	C47.678291,419.774475 50.659286,425.106720 45.113327,427.738800 
	C40.557491,429.900940 36.999989,434.166656 32.999989,437.500000 
"/>
<path fill="none" opacity="1.000000" stroke="#000000" stroke-linecap="round" stroke-linejoin="round" stroke-width="3.000000"
	d="
M84.500000,405.500000 
	C82.709572,410.764618 85.932327,414.954987 87.500000,419.500000 
"/>
<path fill="none" opacity="1.000000" stroke="#000000" stroke-linecap="round" stroke-linejoin="round" stroke-width="4.000000"
	d="
M443.000000,320.000000 
	C445.582977,320.666962 448.026276,322.258545 446.803833,324.909546 
	C445.753937,327.186249 443.759674,329.831879 439.977173,328.568359 
	C437.045135,327.588989 436.213104,325.891907 436.443848,322.995514 
	C436.646088,320.456818 437.376801,319.148560 439.979645,320.538147 
	C441.135437,321.155182 441.641602,320.041382 442.500000,320.000000 
"/>
<path fill="none" opacity="1.000000" stroke="#000000" stroke-linecap="round" stroke-linejoin="round" stroke-width="3.000000"
	d="
M94.000008,406.500000 
	C93.000008,410.666656 92.000008,414.833344 91.000008,419.000000 
"/>
<path fill="none" opacity="1.000000" stroke="#000000" stroke-linecap="round" stroke-linejoin="round" stroke-width="4.000000"
	d="
M144.000000,378.000000 
	C145.068375,379.997162 145.595139,382.127167 149.049454,381.180481 
	C151.467377,380.517792 153.467575,379.746857 153.853119,377.475067 
	C154.121902,375.891296 152.981720,373.708801 150.994537,373.611206 
	C148.929382,373.509766 146.165512,372.291870 144.988617,375.495819 
	C144.733200,376.191101 144.333328,376.833344 144.000000,377.500000 
"/>
<path fill="none" opacity="1.000000" stroke="#000000" stroke-linecap="round" stroke-linejoin="round" stroke-width="4.000000"
	d="
M102.500000,41.500000 
	C101.789360,46.144100 100.320885,50.707001 101.000000,55.500000 
"/>
<path fill="none" opacity="1.000000" stroke="#000000" stroke-linecap="round" stroke-linejoin="round" stroke-width="4.000000"
	d="
M114.500000,430.000000 
	C111.500000,429.833344 108.500000,429.666656 105.500000,429.500000 
"/>
<path fill="none" opacity="1.000000" stroke="#000000" stroke-linecap="round" stroke-linejoin="round" stroke-width="3.000000"
	d="
M110.500000,417.000000 
	C106.572975,416.887390 104.556793,419.380463 103.000000,422.500000 
"/>
<path fill="none" opacity="1.000000" stroke="#000000" stroke-linecap="round" stroke-linejoin="round" stroke-width="5.000000"
	d="
M33.500000,255.500000 
	C33.502884,254.387924 33.790268,253.181015 32.465988,252.503860 
	C29.250000,252.869873 26.000000,256.050049 22.750000,252.500000 
"/>
<path fill="none" opacity="1.000000" stroke="#000000" stroke-linecap="round" stroke-linejoin="round" stroke-width="4.000000"
	d="
M95.500000,50.000000 
	C93.769608,52.741348 94.370895,55.619858 95.000000,58.500000 
"/>
<path fill="none" opacity="1.000000" stroke="#000000" stroke-linecap="round" stroke-linejoin="round" stroke-width="3.000000"
	d="
M102.500000,409.500000 
	C101.356750,412.112946 98.900833,414.233643 99.500000,417.500000 
"/>
<path fill="none" opacity="1.000000" stroke="#000000" stroke-linecap="round" stroke-linejoin="round" stroke-width="3.000000"
	d="
M75.000000,408.500000 
	C75.304649,411.681000 77.811630,413.760864 79.000000,416.500000 
"/>
<path fill="none" opacity="1.000000" stroke="#000000" stroke-linecap="round" stroke-linejoin="round" stroke-width="2.000000"
	d="
M390.499969,447.500000 
	C389.999969,450.000000 389.499969,452.500000 388.999969,455.000000 
"/>
<path fill="none" opacity="1.000000" stroke="#000000" stroke-linecap="round" stroke-linejoin="round" stroke-width="5.000000"
	d="
M445.500000,424.500000 
	C444.549347,424.265350 443.529663,424.943542 443.577393,425.493286 
	C444.092499,431.427979 439.672455,430.965576 436.000000,431.500000 
"/>
<path fill="none" opacity="1.000000" stroke="#000000" stroke-linecap="round" stroke-linejoin="round" stroke-width="4.000000"
	d="
M95.000000,31.500000 
	C95.833527,34.719307 94.863930,37.890980 94.398705,40.984768 
	C93.448479,47.303963 94.012047,48.796246 100.000000,51.500000 
"/>
<path fill="none" opacity="1.000000" stroke="#000000" stroke-linecap="round" stroke-linejoin="round" stroke-width="3.000000"
	d="
M68.499992,420.000000 
	C70.833328,421.000000 73.166664,422.000000 75.499992,423.000000 
"/>
<path fill="none" opacity="1.000000" stroke="#000000" stroke-linecap="round" stroke-linejoin="round" stroke-width="3.000000"
	d="
M76.500000,443.000000 
	C73.708168,441.724640 71.869934,442.547180 71.000000,445.500000 
"/>
<path fill="none" opacity="1.000000" stroke="#000000" stroke-linecap="round" stroke-linejoin="round" stroke-width="4.000000"
	d="
M93.000000,44.000000 
	C91.296989,44.196804 89.818275,42.150566 87.500000,43.728325 
	C87.500000,47.158810 87.500000,50.829407 87.500000,54.500000 
"/>
<path fill="none" opacity="1.000000" stroke="#000000" stroke-linecap="round" stroke-linejoin="round" stroke-width="3.000000"
	d="
M81.999992,447.500000 
	C80.999992,449.500000 79.999992,451.500000 78.999992,453.500000 
"/>
<path fill="none" opacity="1.000000" stroke="#000000" stroke-linecap="round" stroke-linejoin="round" stroke-width="3.000000"
	d="
M99.500000,37.000000 
	C96.833336,37.079151 94.166664,35.303951 91.500000,37.000000 
"/>
<path fill="none" opacity="1.000000" stroke="#000000" stroke-linecap="round" stroke-linejoin="round" stroke-width="4.000000"
	d="
M377.000000,40.500000 
	C374.006226,41.172878 370.363068,41.504112 371.635376,45.961349 
	C372.056335,47.436005 373.741638,48.616722 376.000000,48.616722 
	C378.258362,48.616722 379.812775,47.447834 380.364594,45.950115 
	C381.248535,43.551094 380.018280,41.505184 377.500000,40.500000 
"/>
<path fill="none" opacity="1.000000" stroke="#000000" stroke-linecap="round" stroke-linejoin="round" stroke-width="4.000000"
	d="
M428.000000,39.500000 
	C425.700104,40.888927 422.763672,42.104191 425.524841,45.479683 
	C427.523315,47.922821 434.002502,49.554214 435.429474,47.937744 
	C436.309967,46.940304 436.965027,45.308563 436.895660,44.005554 
	C436.779083,41.816307 435.180725,40.435596 432.995911,40.021660 
	C431.517395,39.741535 430.000000,39.666668 428.500000,39.500000 
"/>
</svg>